<?xml version="1.0" standalone="no"?>
<svg viewBox="0 0 200 200" xmlns="http://www.w3.org/2000/svg">
  <path fill="#000000" d="M41.9,-71.1C51.3,-67.1,53.8,-49.8,56.8,-35.8C59.7,-21.7,62.9,-10.9,64,0.6C65.1,12.1,64,24.2,57.5,32C51,39.8,39,43.3,28.5,48.9C18,54.5,9,62.3,-2.5,66.6C-13.9,70.8,-27.8,71.6,-37.8,65.6C-47.8,59.7,-53.9,47.2,-59.9,35.1C-65.9,23.1,-71.8,11.5,-73.8,-1.2C-75.8,-13.8,-73.9,-27.7,-67.1,-38.5C-60.4,-49.2,-48.8,-56.9,-36.9,-59.4C-24.9,-62,-12.4,-59.3,1.9,-62.6C16.2,-65.9,32.5,-75.1,41.9,-71.1Z" transform="translate(100 100)" />
</svg>
