<!DOCTYPE svg PUBLIC "-//W3C//DTD SVG 1.1//EN" "http://www.w3.org/Graphics/SVG/1.1/DTD/svg11.dtd">
<!-- Uploaded to: SVG Repo, www.svgrepo.com, Transformed by: SVG Repo Mixer Tools -->
<svg fill="#9BA4B4" width="800px" height="800px" viewBox="0 0 256 256" id="Flat" xmlns="http://www.w3.org/2000/svg" stroke="#9BA4B4">
<g id="SVGRepo_bgCarrier" stroke-width="0"/>
<g id="SVGRepo_tracerCarrier" stroke-linecap="round" stroke-linejoin="round"/>
<g id="SVGRepo_iconCarrier"> <path d="M68,60a8,8,0,1,1-8-8A8.00917,8.00917,0,0,1,68,60Zm60-8a8,8,0,1,0,8,8A8.00917,8.00917,0,0,0,128,52Zm68,16a8,8,0,1,0-8-8A8.00917,8.00917,0,0,0,196,68ZM60,188a8,8,0,1,0,8,8A8.00917,8.00917,0,0,0,60,188Zm68,0a8,8,0,1,0,8,8A8.00917,8.00917,0,0,0,128,188Zm68,0a8,8,0,1,0,8,8A8.00917,8.00917,0,0,0,196,188ZM60,120a8,8,0,1,0,8,8A8.00917,8.00917,0,0,0,60,120Zm68,0a8,8,0,1,0,8,8A8.00917,8.00917,0,0,0,128,120Zm68,0a8,8,0,1,0,8,8A8.00917,8.00917,0,0,0,196,120Z"/> </g>
</svg>